<svg width="271" height="40" viewBox="0 0 271 40" fill="none" xmlns="http://www.w3.org/2000/svg">
<path d="M20.9629 36.6318C19.7747 37.5758 18.2285 38.3083 16.3242 38.8291C14.4199 39.3499 12.0762 39.6104 9.29297 39.6104C6.52604 39.6104 3.58008 39.3581 0.455078 38.8535V6.67578C3.61263 6.17122 6.34701 5.91895 8.6582 5.91895C10.9857 5.91895 12.89 6.13867 14.3711 6.57812C15.8685 7.01758 17.0892 7.61165 18.0332 8.36035C19.8887 9.80892 20.8164 11.6888 20.8164 14C20.8164 16.2949 19.9782 18.1992 18.3018 19.7129C20.2874 20.3314 21.8255 21.5033 22.916 23.2285C23.9089 24.7747 24.4053 26.4919 24.4053 28.3799C24.4053 30.2516 24.1286 31.8548 23.5752 33.1895C23.0381 34.5241 22.1673 35.6715 20.9629 36.6318ZM6.9248 18.8096C7.6084 18.9235 8.46289 18.9805 9.48828 18.9805C10.5137 18.9805 11.3519 18.8503 12.0029 18.5898C12.6702 18.3132 13.1829 17.9714 13.541 17.5645C14.127 16.8971 14.4199 15.9694 14.4199 14.7812C14.4199 12.291 12.9551 11.0459 10.0254 11.0459C8.78841 11.0459 7.75488 11.0947 6.9248 11.1924V18.8096ZM10.5381 24.0342C9.1709 24.0342 7.96647 24.1237 6.9248 24.3027V33.8975C8.06413 34.1904 9.26042 34.3369 10.5137 34.3369C11.7669 34.3369 12.8656 34.1904 13.8096 33.8975C14.7699 33.5882 15.5755 33.1732 16.2266 32.6523C17.5449 31.5781 18.2041 30.2109 18.2041 28.5508C18.2041 25.5397 15.6488 24.0342 10.5381 24.0342ZM45.9385 37.4863C43.6273 38.7396 41.5358 39.3662 39.6641 39.3662C37.7923 39.3662 36.1891 39.1953 34.8545 38.8535C33.5199 38.4954 32.3887 37.9746 31.4609 37.291C29.5729 35.9076 28.6289 33.9056 28.6289 31.2852C28.6289 28.9414 29.7845 26.9883 32.0957 25.4258C34.6022 23.7331 38.0039 22.8867 42.3008 22.8867L43.2773 22.9111C43.4727 22.9274 43.6924 22.9437 43.9365 22.96C44.1807 22.96 44.4004 22.9762 44.5957 23.0088C44.4655 20.4046 43.3424 18.8828 41.2266 18.4434C40.5267 18.2969 39.778 18.2236 38.9805 18.2236C38.1992 18.2236 37.4261 18.2969 36.6611 18.4434C35.9124 18.5736 35.18 18.7526 34.4639 18.9805C32.8851 19.485 31.7539 20.0628 31.0703 20.7139L30.9971 20.665L30.2646 15.2695C33.1455 13.7559 36.2949 12.999 39.7129 12.999C45.0189 12.999 48.4124 14.9115 49.8936 18.7363C50.3656 19.957 50.6016 21.3324 50.6016 22.8623V31.7002C50.6016 33.5882 51.2689 34.874 52.6035 35.5576L48.1846 39.6104C47.2568 39.1221 46.5081 38.4141 45.9385 37.4863ZM44.6201 27.4033C44.1807 27.3219 43.7249 27.2812 43.2529 27.2812H42.2764C38.6794 27.2812 36.3926 28.0788 35.416 29.6738C35.123 30.1458 34.9766 30.6423 34.9766 31.1631C34.9766 31.6839 35.0661 32.1478 35.2451 32.5547C35.4404 32.9453 35.7578 33.2708 36.1973 33.5312C37.0436 34.0195 38.2969 34.2637 39.957 34.2637C41.6335 34.2637 43.196 33.8649 44.6445 33.0674C44.6283 32.8883 44.6201 32.7012 44.6201 32.5059V27.4033ZM78.1895 36.6318C76.3665 38.4548 73.5101 39.3662 69.6201 39.3662C65.8441 39.3662 62.7598 38.2188 60.3672 35.9238C57.9421 33.5964 56.7295 30.5039 56.7295 26.6465C56.7295 22.724 57.9258 19.5013 60.3184 16.9785C62.8574 14.3255 66.251 12.999 70.499 12.999C73.5101 12.999 76.0329 13.6582 78.0674 14.9766L77.0908 21.2266L76.9199 21.2021C76.1387 20.2581 75.3167 19.6396 74.4541 19.3467C73.0544 18.8584 71.6546 18.6143 70.2549 18.6143C68.8551 18.6143 67.7565 18.7933 66.959 19.1514C66.1615 19.5094 65.4779 20.0059 64.9082 20.6406C63.7689 21.9427 63.1992 23.668 63.1992 25.8164C63.1992 29.625 64.5176 32.1152 67.1543 33.2871C68.0658 33.6777 69.026 33.873 70.0352 33.873C71.0605 33.873 71.9476 33.7835 72.6963 33.6045C73.4613 33.4255 74.153 33.1813 74.7715 32.8721C76.0898 32.221 76.985 31.4642 77.457 30.6016L77.6279 30.6748L78.1895 36.6318ZM89.9082 36.2656C89.9082 37.6654 89.9408 38.5768 90.0059 39H83.9268V4.08789H89.9082V15.3916C92.0078 13.7965 94.1725 12.999 96.4023 12.999C99.1367 12.999 101.334 13.9023 102.994 15.709C104.622 17.5156 105.436 19.9082 105.436 22.8867V32.6035C105.436 35.3542 105.476 37.0062 105.558 37.5596C105.639 38.113 105.745 38.471 105.875 38.6338C106.021 38.7965 106.144 38.943 106.241 39.0732L106.192 39.1709C104.874 39.057 103.914 39 103.312 39H101.578C101.041 39 100.333 39.0244 99.4541 39.0732V24.9375C99.4541 22.6914 98.9577 21.0312 97.9648 19.957C97.2161 19.1432 96.1989 18.7363 94.9131 18.7363C93.0088 18.7363 91.3405 19.835 89.9082 22.0322V36.2656ZM111.661 6.21191C112.963 4.17741 114.322 2.38704 115.738 0.84082L120.987 4.9668C120.287 5.82943 119.636 6.67578 119.034 7.50586C119.034 7.50586 118.408 8.3929 117.154 10.167L111.661 6.21191ZM118.082 36.2656C118.082 37.6654 118.115 38.5768 118.18 39H111.979V13.4873H118.082V36.2656ZM130.655 36.2656C130.655 37.6654 130.688 38.5768 130.753 39H124.552V2.62305H130.655V36.2656ZM143.204 36.2656C143.204 37.6654 143.237 38.5768 143.302 39H137.101V2.62305H143.204V36.2656ZM148.868 26.4512C148.868 24.5469 149.194 22.7809 149.845 21.1533C150.496 19.5257 151.415 18.1016 152.604 16.8809C155.143 14.293 158.463 12.999 162.564 12.999C166.031 12.999 168.814 14.1465 170.914 16.4414C172.981 18.6549 174.015 21.4382 174.015 24.791C174.015 26.0768 173.917 26.9557 173.722 27.4277C172.094 27.8835 168.782 28.1113 163.785 28.1113H155.191C155.615 29.8529 156.599 31.2119 158.146 32.1885C159.692 33.1488 161.702 33.6289 164.176 33.6289C166.764 33.6289 168.985 33.165 170.841 32.2373C171.329 31.9932 171.695 31.7653 171.939 31.5537C171.907 32.2373 171.866 32.9372 171.817 33.6533L171.549 37.4619C170.312 38.3083 168.31 38.8942 165.543 39.2197C164.729 39.3174 163.948 39.3662 163.199 39.3662C159.065 39.3662 155.647 38.1618 152.945 35.7529C150.227 33.3278 148.868 30.2272 148.868 26.4512ZM167.521 23.375C166.853 19.8757 164.949 18.126 161.808 18.126C159.334 18.126 157.454 19.1921 156.168 21.3242C155.777 21.9753 155.476 22.6914 155.265 23.4727C155.655 23.4889 156.135 23.5052 156.705 23.5215H158.512C159.114 23.5378 159.692 23.5459 160.245 23.5459H161.637C162.467 23.5459 163.281 23.5378 164.078 23.5215L166.08 23.4482C166.617 23.432 167.097 23.4076 167.521 23.375ZM185.099 36.2656C185.099 37.6654 185.131 38.5768 185.196 39H179.117V13.4873H185.099V15.3672C186.482 13.7884 187.931 12.999 189.444 12.999C190.974 12.999 192.179 13.1862 193.058 13.5605L192.618 20.1279L192.521 20.2012C191.951 19.1921 190.771 18.6875 188.98 18.6875C188.297 18.6875 187.597 18.9235 186.881 19.3955C186.181 19.8512 185.587 20.4616 185.099 21.2266V36.2656ZM212.882 37.4863C210.571 38.7396 208.479 39.3662 206.607 39.3662C204.736 39.3662 203.132 39.1953 201.798 38.8535C200.463 38.4954 199.332 37.9746 198.404 37.291C196.516 35.9076 195.572 33.9056 195.572 31.2852C195.572 28.9414 196.728 26.9883 199.039 25.4258C201.546 23.7331 204.947 22.8867 209.244 22.8867L210.221 22.9111C210.416 22.9274 210.636 22.9437 210.88 22.96C211.124 22.96 211.344 22.9762 211.539 23.0088C211.409 20.4046 210.286 18.8828 208.17 18.4434C207.47 18.2969 206.721 18.2236 205.924 18.2236C205.143 18.2236 204.369 18.2969 203.604 18.4434C202.856 18.5736 202.123 18.7526 201.407 18.9805C199.828 19.485 198.697 20.0628 198.014 20.7139L197.94 20.665L197.208 15.2695C200.089 13.7559 203.238 12.999 206.656 12.999C211.962 12.999 215.356 14.9115 216.837 18.7363C217.309 19.957 217.545 21.3324 217.545 22.8623V31.7002C217.545 33.5882 218.212 34.874 219.547 35.5576L215.128 39.6104C214.2 39.1221 213.451 38.4141 212.882 37.4863ZM211.563 27.4033C211.124 27.3219 210.668 27.2812 210.196 27.2812H209.22C205.623 27.2812 203.336 28.0788 202.359 29.6738C202.066 30.1458 201.92 30.6423 201.92 31.1631C201.92 31.6839 202.009 32.1478 202.188 32.5547C202.384 32.9453 202.701 33.2708 203.141 33.5312C203.987 34.0195 205.24 34.2637 206.9 34.2637C208.577 34.2637 210.139 33.8649 211.588 33.0674C211.572 32.8883 211.563 32.7012 211.563 32.5059V27.4033ZM236.515 33.6289C238.614 33.6289 240.055 33.0837 240.836 31.9932H241.031L241.104 37.6572C240.307 38.4548 238.826 38.9837 236.661 39.2441C236.075 39.3255 235.343 39.3662 234.464 39.3662C233.601 39.3662 232.657 39.2035 231.632 38.8779C230.623 38.5524 229.76 38.0234 229.044 37.291C227.563 35.7773 226.822 33.4092 226.822 30.1865V19.1025H223.136C223.119 18.6305 223.111 18.1504 223.111 17.6621V13.9023C223.111 13.6257 223.119 13.4873 223.136 13.4873H226.822V6.5293H232.804V13.4873H239.518V19.1025H232.804V29.0635C232.804 31.6188 233.512 33.0755 234.928 33.4336C235.383 33.5638 235.912 33.6289 236.515 33.6289ZM244.229 26.3779C244.229 24.5876 244.531 22.8786 245.133 21.251C245.751 19.6071 246.63 18.1748 247.77 16.9541C250.26 14.3174 253.491 12.999 257.462 12.999C261.417 12.999 264.558 14.2441 266.886 16.7344C269.116 19.1107 270.23 22.195 270.23 25.9873C270.23 29.7796 269.083 32.9209 266.788 35.4111C264.363 38.0479 261.148 39.3662 257.145 39.3662C253.01 39.3662 249.771 38.0723 247.428 35.4844C245.296 33.1243 244.229 30.0889 244.229 26.3779ZM250.162 26.2314C250.162 27.2568 250.333 28.2497 250.675 29.21C251.017 30.1702 251.505 30.9922 252.14 31.6758C253.491 33.1569 255.265 33.8975 257.462 33.8975C259.496 33.8975 261.1 33.1732 262.271 31.7246C263.411 30.3249 263.98 28.502 263.98 26.2559C263.98 23.9772 263.395 22.138 262.223 20.7383C260.969 19.2409 259.252 18.4922 257.071 18.4922C254.858 18.4922 253.124 19.2897 251.871 20.8848C250.732 22.3496 250.162 24.1318 250.162 26.2314Z" fill="#362565"/>
</svg>
