<svg width="170" height="40" viewBox="0 0 170 40" fill="none" xmlns="http://www.w3.org/2000/svg">
<path d="M20.5361 36.6318C19.348 37.5758 17.8018 38.3083 15.8975 38.8291C13.9932 39.3499 11.6494 39.6104 8.86621 39.6104C6.09928 39.6104 3.15332 39.3581 0.0283203 38.8535V6.67578C3.18587 6.17122 5.92025 5.91895 8.23145 5.91895C10.5589 5.91895 12.4632 6.13867 13.9443 6.57812C15.4417 7.01758 16.6624 7.61165 17.6064 8.36035C19.4619 9.80892 20.3896 11.6888 20.3896 14C20.3896 16.2949 19.5514 18.1992 17.875 19.7129C19.8607 20.3314 21.3988 21.5033 22.4893 23.2285C23.4821 24.7747 23.9785 26.4919 23.9785 28.3799C23.9785 30.2516 23.7018 31.8548 23.1484 33.1895C22.6113 34.5241 21.7406 35.6715 20.5361 36.6318ZM6.49805 18.8096C7.18164 18.9235 8.03613 18.9805 9.06152 18.9805C10.0869 18.9805 10.9251 18.8503 11.5762 18.5898C12.2435 18.3132 12.7562 17.9714 13.1143 17.5645C13.7002 16.8971 13.9932 15.9694 13.9932 14.7812C13.9932 12.291 12.5283 11.0459 9.59863 11.0459C8.36165 11.0459 7.32812 11.0947 6.49805 11.1924V18.8096ZM10.1113 24.0342C8.74414 24.0342 7.53971 24.1237 6.49805 24.3027V33.8975C7.63737 34.1904 8.83366 34.3369 10.0869 34.3369C11.3402 34.3369 12.4388 34.1904 13.3828 33.8975C14.3431 33.5882 15.1488 33.1732 15.7998 32.6523C17.1182 31.5781 17.7773 30.2109 17.7773 28.5508C17.7773 25.5397 15.222 24.0342 10.1113 24.0342ZM45.5117 37.4863C43.2005 38.7396 41.109 39.3662 39.2373 39.3662C37.3656 39.3662 35.7624 39.1953 34.4277 38.8535C33.0931 38.4954 31.9619 37.9746 31.0342 37.291C29.1462 35.9076 28.2021 33.9056 28.2021 31.2852C28.2021 28.9414 29.3577 26.9883 31.6689 25.4258C34.1755 23.7331 37.5771 22.8867 41.874 22.8867L42.8506 22.9111C43.0459 22.9274 43.2656 22.9437 43.5098 22.96C43.7539 22.96 43.9736 22.9762 44.1689 23.0088C44.0387 20.4046 42.9157 18.8828 40.7998 18.4434C40.0999 18.2969 39.3512 18.2236 38.5537 18.2236C37.7725 18.2236 36.9993 18.2969 36.2344 18.4434C35.4857 18.5736 34.7533 18.7526 34.0371 18.9805C32.4583 19.485 31.3271 20.0628 30.6436 20.7139L30.5703 20.665L29.8379 15.2695C32.7188 13.7559 35.8682 12.999 39.2861 12.999C44.5921 12.999 47.9857 14.9115 49.4668 18.7363C49.9388 19.957 50.1748 21.3324 50.1748 22.8623V31.7002C50.1748 33.5882 50.8421 34.874 52.1768 35.5576L47.7578 39.6104C46.8301 39.1221 46.0814 38.4141 45.5117 37.4863ZM44.1934 27.4033C43.7539 27.3219 43.2982 27.2812 42.8262 27.2812H41.8496C38.2526 27.2812 35.9658 28.0788 34.9893 29.6738C34.6963 30.1458 34.5498 30.6423 34.5498 31.1631C34.5498 31.6839 34.6393 32.1478 34.8184 32.5547C35.0137 32.9453 35.3311 33.2708 35.7705 33.5312C36.6169 34.0195 37.8701 34.2637 39.5303 34.2637C41.2067 34.2637 42.7692 33.8649 44.2178 33.0674C44.2015 32.8883 44.1934 32.7012 44.1934 32.5059V27.4033ZM38.9688 2.30566C41.4102 2.30566 44.0143 2.16732 46.7812 1.89062L46.7568 2.06152L40.3604 9.94727H34.8428L38.9688 2.30566ZM66.4102 39.3662C61.8203 39.3662 58.3617 38.528 56.0342 36.8516C56.0667 36.3633 56.1156 35.8099 56.1807 35.1914L56.4004 33.4336C56.5306 32.278 56.612 31.5618 56.6445 31.2852C56.6771 30.9922 56.7015 30.8376 56.7178 30.8213C56.734 30.7887 56.8643 30.9189 57.1084 31.2119C57.3525 31.4886 57.8164 31.8304 58.5 32.2373C59.1836 32.6442 59.973 33.0023 60.8682 33.3115C62.805 33.9788 64.8232 34.3125 66.9229 34.3125C69.7386 34.3125 71.1465 33.3766 71.1465 31.5049C71.1465 30.9027 70.8779 30.4551 70.3408 30.1621C69.3805 29.6738 67.9645 29.3076 66.0928 29.0635C64.2373 28.8031 62.7155 28.4287 61.5273 27.9404C60.3392 27.4521 59.3708 26.8662 58.6221 26.1826C57.2386 24.8968 56.5469 23.2122 56.5469 21.1289C56.5469 18.5898 57.5234 16.596 59.4766 15.1475C61.4134 13.7152 64.0908 12.999 67.5088 12.999C70.8942 12.999 73.7832 13.9593 76.1758 15.8799C76.0618 16.3031 75.9398 16.71 75.8096 17.1006C75.4352 18.1748 75.1585 18.9479 74.9795 19.4199L74.418 20.8604C74.3854 20.9906 74.361 21.0557 74.3447 21.0557C74.3122 21.0557 74.182 20.8848 73.9541 20.543C72.9287 19.3548 71.3337 18.5736 69.1689 18.1992C68.5016 18.069 67.818 18.0039 67.1182 18.0039C64.1559 18.0039 62.6748 18.8991 62.6748 20.6895C62.6748 21.3079 62.984 21.7799 63.6025 22.1055C64.7581 22.724 66.3369 23.1797 68.3389 23.4727C70.3571 23.7656 71.887 24.1644 72.9287 24.6689C73.9704 25.1572 74.8086 25.7513 75.4434 26.4512C76.6152 27.7207 77.2012 29.4053 77.2012 31.5049C77.2012 33.7998 76.2816 35.6634 74.4424 37.0957C72.5218 38.6094 69.8444 39.3662 66.4102 39.3662ZM82.084 6.21191C83.3861 4.17741 84.7451 2.38704 86.1611 0.84082L91.4102 4.9668C90.7103 5.82943 90.0592 6.67578 89.457 7.50586C89.457 7.50586 88.8304 8.3929 87.5771 10.167L82.084 6.21191ZM88.5049 36.2656C88.5049 37.6654 88.5374 38.5768 88.6025 39H82.4014V13.4873H88.5049V36.2656ZM115.36 36.6318C113.537 38.4548 110.681 39.3662 106.791 39.3662C103.015 39.3662 99.9307 38.2188 97.5381 35.9238C95.113 33.5964 93.9004 30.5039 93.9004 26.6465C93.9004 22.724 95.0967 19.5013 97.4893 16.9785C100.028 14.3255 103.422 12.999 107.67 12.999C110.681 12.999 113.204 13.6582 115.238 14.9766L114.262 21.2266L114.091 21.2021C113.31 20.2581 112.488 19.6396 111.625 19.3467C110.225 18.8584 108.826 18.6143 107.426 18.6143C106.026 18.6143 104.927 18.7933 104.13 19.1514C103.332 19.5094 102.649 20.0059 102.079 20.6406C100.94 21.9427 100.37 23.668 100.37 25.8164C100.37 29.625 101.688 32.1152 104.325 33.2871C105.237 33.6777 106.197 33.873 107.206 33.873C108.231 33.873 109.118 33.7835 109.867 33.6045C110.632 33.4255 111.324 33.1813 111.942 32.8721C113.261 32.221 114.156 31.4642 114.628 30.6016L114.799 30.6748L115.36 36.6318ZM118.607 26.3779C118.607 24.5876 118.909 22.8786 119.511 21.251C120.129 19.6071 121.008 18.1748 122.147 16.9541C124.638 14.3174 127.868 12.999 131.84 12.999C135.795 12.999 138.936 14.2441 141.264 16.7344C143.493 19.1107 144.608 22.195 144.608 25.9873C144.608 29.7796 143.461 32.9209 141.166 35.4111C138.741 38.0479 135.526 39.3662 131.522 39.3662C127.388 39.3662 124.149 38.0723 121.806 35.4844C119.674 33.1243 118.607 30.0889 118.607 26.3779ZM124.54 26.2314C124.54 27.2568 124.711 28.2497 125.053 29.21C125.395 30.1702 125.883 30.9922 126.518 31.6758C127.868 33.1569 129.643 33.8975 131.84 33.8975C133.874 33.8975 135.478 33.1732 136.649 31.7246C137.789 30.3249 138.358 28.502 138.358 26.2559C138.358 23.9772 137.772 22.138 136.601 20.7383C135.347 19.2409 133.63 18.4922 131.449 18.4922C129.236 18.4922 127.502 19.2897 126.249 20.8848C125.11 22.3496 124.54 24.1318 124.54 26.2314ZM158.305 39.3662C153.715 39.3662 150.256 38.528 147.929 36.8516C147.961 36.3633 148.01 35.8099 148.075 35.1914L148.295 33.4336C148.425 32.278 148.507 31.5618 148.539 31.2852C148.572 30.9922 148.596 30.8376 148.612 30.8213C148.629 30.7887 148.759 30.9189 149.003 31.2119C149.247 31.4886 149.711 31.8304 150.395 32.2373C151.078 32.6442 151.868 33.0023 152.763 33.3115C154.7 33.9788 156.718 34.3125 158.817 34.3125C161.633 34.3125 163.041 33.3766 163.041 31.5049C163.041 30.9027 162.772 30.4551 162.235 30.1621C161.275 29.6738 159.859 29.3076 157.987 29.0635C156.132 28.8031 154.61 28.4287 153.422 27.9404C152.234 27.4521 151.265 26.8662 150.517 26.1826C149.133 24.8968 148.441 23.2122 148.441 21.1289C148.441 18.5898 149.418 16.596 151.371 15.1475C153.308 13.7152 155.985 12.999 159.403 12.999C162.789 12.999 165.678 13.9593 168.07 15.8799C167.956 16.3031 167.834 16.71 167.704 17.1006C167.33 18.1748 167.053 18.9479 166.874 19.4199L166.312 20.8604C166.28 20.9906 166.256 21.0557 166.239 21.0557C166.207 21.0557 166.076 20.8848 165.849 20.543C164.823 19.3548 163.228 18.5736 161.063 18.1992C160.396 18.069 159.713 18.0039 159.013 18.0039C156.05 18.0039 154.569 18.8991 154.569 20.6895C154.569 21.3079 154.879 21.7799 155.497 22.1055C156.653 22.724 158.231 23.1797 160.233 23.4727C162.252 23.7656 163.782 24.1644 164.823 24.6689C165.865 25.1572 166.703 25.7513 167.338 26.4512C168.51 27.7207 169.096 29.4053 169.096 31.5049C169.096 33.7998 168.176 35.6634 166.337 37.0957C164.416 38.6094 161.739 39.3662 158.305 39.3662Z" fill="#362565"/>
</svg>
