<svg width="254" height="49" viewBox="0 0 254 49" fill="none" xmlns="http://www.w3.org/2000/svg">
<path d="M0.389648 6.3584C2.65202 6.06543 4.97135 5.91895 7.34766 5.91895C11.7747 5.91895 15.1357 6.96061 17.4307 9.04395C19.7419 11.111 20.8975 14.2116 20.8975 18.3457C20.8975 22.0404 19.6361 24.9619 17.1133 27.1104C14.7533 29.1286 11.7178 30.1377 8.00684 30.1377C7.58366 30.1377 7.11979 30.1133 6.61523 30.0645V39H0.389648V6.3584ZM8.08008 11.8027C7.5918 11.8027 7.10352 11.819 6.61523 11.8516V24.6934C7.13607 24.7585 7.77083 24.791 8.51953 24.791C9.26823 24.791 10.0495 24.6364 10.8633 24.3271C11.6771 24.0016 12.3607 23.554 12.9141 22.9844C14.0697 21.7962 14.6475 20.2337 14.6475 18.2969C14.6475 13.9674 12.4583 11.8027 8.08008 11.8027ZM31.0537 36.2656C31.0537 37.6654 31.0863 38.5768 31.1514 39H25.0723V13.4873H31.0537V15.3672C32.4372 13.7884 33.8857 12.999 35.3994 12.999C36.9294 12.999 38.1338 13.1862 39.0127 13.5605L38.5732 20.1279L38.4756 20.2012C37.9059 19.1921 36.7259 18.6875 34.9355 18.6875C34.252 18.6875 33.5521 18.9235 32.8359 19.3955C32.1361 19.8512 31.542 20.4616 31.0537 21.2266V36.2656ZM40.7705 26.4512C40.7705 24.5469 41.096 22.7809 41.7471 21.1533C42.3981 19.5257 43.3177 18.1016 44.5059 16.8809C47.0449 14.293 50.3652 12.999 54.4668 12.999C57.9336 12.999 60.7168 14.1465 62.8164 16.4414C64.8835 18.6549 65.917 21.4382 65.917 24.791C65.917 26.0768 65.8193 26.9557 65.624 27.4277C63.9964 27.8835 60.6842 28.1113 55.6875 28.1113H47.0938C47.5169 29.8529 48.5016 31.2119 50.0479 32.1885C51.5941 33.1488 53.6042 33.6289 56.0781 33.6289C58.666 33.6289 60.8877 33.165 62.7432 32.2373C63.2314 31.9932 63.5977 31.7653 63.8418 31.5537C63.8092 32.2373 63.7686 32.9372 63.7197 33.6533L63.4512 37.4619C62.2142 38.3083 60.2122 38.8942 57.4453 39.2197C56.6315 39.3174 55.8503 39.3662 55.1016 39.3662C50.9674 39.3662 47.5495 38.1618 44.8477 35.7529C42.1296 33.3278 40.7705 30.2272 40.7705 26.4512ZM59.4229 23.375C58.7555 19.8757 56.8512 18.126 53.71 18.126C51.236 18.126 49.3561 19.1921 48.0703 21.3242C47.6797 21.9753 47.3786 22.6914 47.167 23.4727C47.5576 23.4889 48.0378 23.5052 48.6074 23.5215H50.4141C51.0163 23.5378 51.5941 23.5459 52.1475 23.5459H53.5391C54.3691 23.5459 55.1829 23.5378 55.9805 23.5215L57.9824 23.4482C58.5195 23.432 58.9997 23.4076 59.4229 23.375ZM77.5869 38.4873V45.665C77.5869 47.0648 77.6195 47.9762 77.6846 48.3994H71.6055V13.4873H77.5869V15.0742C79.5563 13.6908 81.4443 12.999 83.251 12.999C85.0576 12.999 86.6608 13.2513 88.0605 13.7559C89.4603 14.2604 90.6891 15.0417 91.7471 16.0996C94.0745 18.3945 95.2383 21.666 95.2383 25.9141C95.2383 28.7298 94.5791 31.2445 93.2607 33.458C92.1377 35.3298 90.5833 36.8271 88.5977 37.9502C86.8398 38.943 84.9355 39.4395 82.8848 39.4395C80.834 39.4395 79.068 39.1221 77.5869 38.4873ZM77.5869 32.335C78.8239 33.3766 80.4271 33.8975 82.3965 33.8975C85.6191 33.8975 87.7025 32.3431 88.6465 29.2344C88.972 28.1764 89.1348 27.0452 89.1348 25.8408C89.1348 24.6201 89.0208 23.6517 88.793 22.9355C88.5651 22.2031 88.264 21.5765 87.8896 21.0557C87.5316 20.5186 87.1247 20.0791 86.6689 19.7373C86.2132 19.3792 85.7493 19.0944 85.2773 18.8828C84.4473 18.5085 83.5928 18.3213 82.7139 18.3213C81.835 18.3213 80.9235 18.5247 79.9795 18.9316C79.0355 19.3385 78.238 19.8838 77.5869 20.5674V32.335ZM106.151 36.2656C106.151 37.6654 106.184 38.5768 106.249 39H100.17V13.4873H106.151V15.3672C107.535 13.7884 108.983 12.999 110.497 12.999C112.027 12.999 113.231 13.1862 114.11 13.5605L113.671 20.1279L113.573 20.2012C113.004 19.1921 111.824 18.6875 110.033 18.6875C109.35 18.6875 108.65 18.9235 107.934 19.3955C107.234 19.8512 106.64 20.4616 106.151 21.2266V36.2656ZM116.308 6.21191C117.61 4.17741 118.969 2.38704 120.385 0.84082L125.634 4.9668C124.934 5.82943 124.283 6.67578 123.681 7.50586C123.681 7.50586 123.054 8.3929 121.801 10.167L116.308 6.21191ZM122.729 36.2656C122.729 37.6654 122.761 38.5768 122.826 39H116.625V13.4873H122.729V36.2656ZM136.229 31.9443C136.229 35.6064 136.295 37.9583 136.425 39H130.053V13.4873H136.229V15.6846C138.459 13.8942 140.746 12.999 143.09 12.999C145.857 12.999 147.867 14.1953 149.12 16.5879C150.373 15.3021 151.415 14.4557 152.245 14.0488C153.629 13.349 155.012 12.999 156.396 12.999C157.795 12.999 158.983 13.235 159.96 13.707C160.937 14.179 161.742 14.8464 162.377 15.709C163.663 17.4505 164.306 19.8431 164.306 22.8867V32.6035C164.306 35.3542 164.346 37.0062 164.428 37.5596C164.509 38.113 164.615 38.471 164.745 38.6338C164.892 38.7965 165.014 38.943 165.111 39.0732L165.062 39.1709C163.76 39.057 162.8 39 162.182 39H160.351C159.748 39 159.008 39.0244 158.129 39.0732V25.8652C158.129 22.0566 157.543 19.7943 156.371 19.0781C155.98 18.8503 155.517 18.7363 154.979 18.7363C154.459 18.7363 153.995 18.8014 153.588 18.9316C153.181 19.0456 152.799 19.2409 152.44 19.5176C151.838 19.957 151.155 20.8197 150.39 22.1055C150.406 22.2357 150.414 22.3659 150.414 22.4961C150.414 22.6263 150.414 24.7747 150.414 28.9414C150.414 33.1081 150.512 36.4609 150.707 39C149.324 39 148.144 39 147.167 39C146.207 39 145.287 39.0244 144.408 39.0732V25.8408C144.408 23.1878 144.245 21.4626 143.92 20.665C143.611 19.8675 143.277 19.3467 142.919 19.1025C142.561 18.8584 142.121 18.7363 141.601 18.7363C139.452 18.7363 137.662 19.7699 136.229 21.8369V31.9443ZM188.231 37.4863C185.92 38.7396 183.829 39.3662 181.957 39.3662C180.085 39.3662 178.482 39.1953 177.147 38.8535C175.813 38.4954 174.682 37.9746 173.754 37.291C171.866 35.9076 170.922 33.9056 170.922 31.2852C170.922 28.9414 172.077 26.9883 174.389 25.4258C176.895 23.7331 180.297 22.8867 184.594 22.8867L185.57 22.9111C185.766 22.9274 185.985 22.9437 186.229 22.96C186.474 22.96 186.693 22.9762 186.889 23.0088C186.758 20.4046 185.635 18.8828 183.52 18.4434C182.82 18.2969 182.071 18.2236 181.273 18.2236C180.492 18.2236 179.719 18.2969 178.954 18.4434C178.205 18.5736 177.473 18.7526 176.757 18.9805C175.178 19.485 174.047 20.0628 173.363 20.7139L173.29 20.665L172.558 15.2695C175.438 13.7559 178.588 12.999 182.006 12.999C187.312 12.999 190.705 14.9115 192.187 18.7363C192.659 19.957 192.895 21.3324 192.895 22.8623V31.7002C192.895 33.5882 193.562 34.874 194.896 35.5576L190.478 39.6104C189.55 39.1221 188.801 38.4141 188.231 37.4863ZM186.913 27.4033C186.474 27.3219 186.018 27.2812 185.546 27.2812H184.569C180.972 27.2812 178.686 28.0788 177.709 29.6738C177.416 30.1458 177.27 30.6423 177.27 31.1631C177.27 31.6839 177.359 32.1478 177.538 32.5547C177.733 32.9453 178.051 33.2708 178.49 33.5312C179.337 34.0195 180.59 34.2637 182.25 34.2637C183.926 34.2637 185.489 33.8649 186.938 33.0674C186.921 32.8883 186.913 32.7012 186.913 32.5059V27.4033ZM206.298 36.2656C206.298 37.6654 206.33 38.5768 206.396 39H200.316V13.4873H206.298V15.3672C207.681 13.7884 209.13 12.999 210.644 12.999C212.174 12.999 213.378 13.1862 214.257 13.5605L213.817 20.1279L213.72 20.2012C213.15 19.1921 211.97 18.6875 210.18 18.6875C209.496 18.6875 208.796 18.9235 208.08 19.3955C207.38 19.8512 206.786 20.4616 206.298 21.2266V36.2656ZM216.454 6.21191C217.756 4.17741 219.115 2.38704 220.531 0.84082L225.78 4.9668C225.08 5.82943 224.429 6.67578 223.827 7.50586C223.827 7.50586 223.201 8.3929 221.947 10.167L216.454 6.21191ZM222.875 36.2656C222.875 37.6654 222.908 38.5768 222.973 39H216.771V13.4873H222.875V36.2656ZM246.63 37.4863C244.319 38.7396 242.227 39.3662 240.355 39.3662C238.484 39.3662 236.881 39.1953 235.546 38.8535C234.211 38.4954 233.08 37.9746 232.152 37.291C230.264 35.9076 229.32 33.9056 229.32 31.2852C229.32 28.9414 230.476 26.9883 232.787 25.4258C235.294 23.7331 238.695 22.8867 242.992 22.8867L243.969 22.9111C244.164 22.9274 244.384 22.9437 244.628 22.96C244.872 22.96 245.092 22.9762 245.287 23.0088C245.157 20.4046 244.034 18.8828 241.918 18.4434C241.218 18.2969 240.469 18.2236 239.672 18.2236C238.891 18.2236 238.118 18.2969 237.353 18.4434C236.604 18.5736 235.871 18.7526 235.155 18.9805C233.576 19.485 232.445 20.0628 231.762 20.7139L231.688 20.665L230.956 15.2695C233.837 13.7559 236.986 12.999 240.404 12.999C245.71 12.999 249.104 14.9115 250.585 18.7363C251.057 19.957 251.293 21.3324 251.293 22.8623V31.7002C251.293 33.5882 251.96 34.874 253.295 35.5576L248.876 39.6104C247.948 39.1221 247.2 38.4141 246.63 37.4863ZM245.312 27.4033C244.872 27.3219 244.416 27.2812 243.944 27.2812H242.968C239.371 27.2812 237.084 28.0788 236.107 29.6738C235.814 30.1458 235.668 30.6423 235.668 31.1631C235.668 31.6839 235.757 32.1478 235.937 32.5547C236.132 32.9453 236.449 33.2708 236.889 33.5312C237.735 34.0195 238.988 34.2637 240.648 34.2637C242.325 34.2637 243.887 33.8649 245.336 33.0674C245.32 32.8883 245.312 32.7012 245.312 32.5059V27.4033Z" fill="#362565"/>
</svg>
