<svg width="179" height="40" viewBox="0 0 179 40" fill="none" xmlns="http://www.w3.org/2000/svg">
<path d="M0.938477 6.3584C3.20085 6.06543 5.52018 5.91895 7.89648 5.91895C12.3236 5.91895 15.6846 6.96061 17.9795 9.04395C20.2907 11.111 21.4463 14.2116 21.4463 18.3457C21.4463 22.0404 20.1849 24.9619 17.6621 27.1104C15.3021 29.1286 12.2666 30.1377 8.55566 30.1377C8.13249 30.1377 7.66862 30.1133 7.16406 30.0645V39H0.938477V6.3584ZM8.62891 11.8027C8.14062 11.8027 7.65234 11.819 7.16406 11.8516V24.6934C7.6849 24.7585 8.31966 24.791 9.06836 24.791C9.81706 24.791 10.5983 24.6364 11.4121 24.3271C12.2259 24.0016 12.9095 23.554 13.4629 22.9844C14.6185 21.7962 15.1963 20.2337 15.1963 18.2969C15.1963 13.9674 13.0072 11.8027 8.62891 11.8027ZM31.6025 36.2656C31.6025 37.6654 31.6351 38.5768 31.7002 39H25.6211V13.4873H31.6025V15.3672C32.986 13.7884 34.4346 12.999 35.9482 12.999C37.4782 12.999 38.6826 13.1862 39.5615 13.5605L39.1221 20.1279L39.0244 20.2012C38.4548 19.1921 37.2747 18.6875 35.4844 18.6875C34.8008 18.6875 34.1009 18.9235 33.3848 19.3955C32.6849 19.8512 32.0908 20.4616 31.6025 21.2266V36.2656ZM41.7588 6.21191C43.0609 4.17741 44.4199 2.38704 45.8359 0.84082L51.085 4.9668C50.3851 5.82943 49.734 6.67578 49.1318 7.50586C49.1318 7.50586 48.5052 8.3929 47.252 10.167L41.7588 6.21191ZM48.1797 36.2656C48.1797 37.6654 48.2122 38.5768 48.2773 39H42.0762V13.4873H48.1797V36.2656ZM61.6807 31.9443C61.6807 35.6064 61.7458 37.9583 61.876 39H55.5039V13.4873H61.6807V15.6846C63.9105 13.8942 66.1973 12.999 68.541 12.999C71.3079 12.999 73.318 14.1953 74.5713 16.5879C75.8245 15.3021 76.8662 14.4557 77.6963 14.0488C79.0798 13.349 80.4632 12.999 81.8467 12.999C83.2464 12.999 84.4346 13.235 85.4111 13.707C86.3877 14.179 87.1934 14.8464 87.8281 15.709C89.1139 17.4505 89.7568 19.8431 89.7568 22.8867V32.6035C89.7568 35.3542 89.7975 37.0062 89.8789 37.5596C89.9603 38.113 90.0661 38.471 90.1963 38.6338C90.3428 38.7965 90.4648 38.943 90.5625 39.0732L90.5137 39.1709C89.2116 39.057 88.2513 39 87.6328 39H85.8018C85.1995 39 84.459 39.0244 83.5801 39.0732V25.8652C83.5801 22.0566 82.9941 19.7943 81.8223 19.0781C81.4316 18.8503 80.9678 18.7363 80.4307 18.7363C79.9098 18.7363 79.446 18.8014 79.0391 18.9316C78.6322 19.0456 78.2497 19.2409 77.8916 19.5176C77.2894 19.957 76.6058 20.8197 75.8408 22.1055C75.8571 22.2357 75.8652 22.3659 75.8652 22.4961C75.8652 22.6263 75.8652 24.7747 75.8652 28.9414C75.8652 33.1081 75.9629 36.4609 76.1582 39C74.7747 39 73.5947 39 72.6182 39C71.6579 39 70.7383 39.0244 69.8594 39.0732V25.8408C69.8594 23.1878 69.6966 21.4626 69.3711 20.665C69.0618 19.8675 68.7282 19.3467 68.3701 19.1025C68.012 18.8584 67.5726 18.7363 67.0518 18.7363C64.9033 18.7363 63.113 19.7699 61.6807 21.8369V31.9443ZM113.683 37.4863C111.371 38.7396 109.28 39.3662 107.408 39.3662C105.536 39.3662 103.933 39.1953 102.599 38.8535C101.264 38.4954 100.133 37.9746 99.2051 37.291C97.3171 35.9076 96.373 33.9056 96.373 31.2852C96.373 28.9414 97.5286 26.9883 99.8398 25.4258C102.346 23.7331 105.748 22.8867 110.045 22.8867L111.021 22.9111C111.217 22.9274 111.437 22.9437 111.681 22.96C111.925 22.96 112.145 22.9762 112.34 23.0088C112.21 20.4046 111.087 18.8828 108.971 18.4434C108.271 18.2969 107.522 18.2236 106.725 18.2236C105.943 18.2236 105.17 18.2969 104.405 18.4434C103.657 18.5736 102.924 18.7526 102.208 18.9805C100.629 19.485 99.498 20.0628 98.8145 20.7139L98.7412 20.665L98.0088 15.2695C100.89 13.7559 104.039 12.999 107.457 12.999C112.763 12.999 116.157 14.9115 117.638 18.7363C118.11 19.957 118.346 21.3324 118.346 22.8623V31.7002C118.346 33.5882 119.013 34.874 120.348 35.5576L115.929 39.6104C115.001 39.1221 114.252 38.4141 113.683 37.4863ZM112.364 27.4033C111.925 27.3219 111.469 27.2812 110.997 27.2812H110.021C106.424 27.2812 104.137 28.0788 103.16 29.6738C102.867 30.1458 102.721 30.6423 102.721 31.1631C102.721 31.6839 102.81 32.1478 102.989 32.5547C103.185 32.9453 103.502 33.2708 103.941 33.5312C104.788 34.0195 106.041 34.2637 107.701 34.2637C109.378 34.2637 110.94 33.8649 112.389 33.0674C112.372 32.8883 112.364 32.7012 112.364 32.5059V27.4033ZM131.749 36.2656C131.749 37.6654 131.782 38.5768 131.847 39H125.768V13.4873H131.749V15.3672C133.132 13.7884 134.581 12.999 136.095 12.999C137.625 12.999 138.829 13.1862 139.708 13.5605L139.269 20.1279L139.171 20.2012C138.601 19.1921 137.421 18.6875 135.631 18.6875C134.947 18.6875 134.247 18.9235 133.531 19.3955C132.831 19.8512 132.237 20.4616 131.749 21.2266V36.2656ZM141.905 6.21191C143.207 4.17741 144.566 2.38704 145.982 0.84082L151.231 4.9668C150.532 5.82943 149.881 6.67578 149.278 7.50586C149.278 7.50586 148.652 8.3929 147.398 10.167L141.905 6.21191ZM148.326 36.2656C148.326 37.6654 148.359 38.5768 148.424 39H142.223V13.4873H148.326V36.2656ZM172.081 37.4863C169.77 38.7396 167.678 39.3662 165.807 39.3662C163.935 39.3662 162.332 39.1953 160.997 38.8535C159.662 38.4954 158.531 37.9746 157.604 37.291C155.715 35.9076 154.771 33.9056 154.771 31.2852C154.771 28.9414 155.927 26.9883 158.238 25.4258C160.745 23.7331 164.146 22.8867 168.443 22.8867L169.42 22.9111C169.615 22.9274 169.835 22.9437 170.079 22.96C170.323 22.96 170.543 22.9762 170.738 23.0088C170.608 20.4046 169.485 18.8828 167.369 18.4434C166.669 18.2969 165.921 18.2236 165.123 18.2236C164.342 18.2236 163.569 18.2969 162.804 18.4434C162.055 18.5736 161.323 18.7526 160.606 18.9805C159.028 19.485 157.896 20.0628 157.213 20.7139L157.14 20.665L156.407 15.2695C159.288 13.7559 162.438 12.999 165.855 12.999C171.161 12.999 174.555 14.9115 176.036 18.7363C176.508 19.957 176.744 21.3324 176.744 22.8623V31.7002C176.744 33.5882 177.411 34.874 178.746 35.5576L174.327 39.6104C173.399 39.1221 172.651 38.4141 172.081 37.4863ZM170.763 27.4033C170.323 27.3219 169.868 27.2812 169.396 27.2812H168.419C164.822 27.2812 162.535 28.0788 161.559 29.6738C161.266 30.1458 161.119 30.6423 161.119 31.1631C161.119 31.6839 161.209 32.1478 161.388 32.5547C161.583 32.9453 161.9 33.2708 162.34 33.5312C163.186 34.0195 164.439 34.2637 166.1 34.2637C167.776 34.2637 169.339 33.8649 170.787 33.0674C170.771 32.8883 170.763 32.7012 170.763 32.5059V27.4033Z" fill="#362565"/>
</svg>
